# MagicaVoxel @ Ephtracy

# group
g Death 2-5

# material
mtllib Death 2-5.mtl
usemtl palette

# normals
vn -1 0 0
vn 1 0 0
vn 0 0 1
vn 0 0 -1
vn 0 -1 0
vn 0 1 0

# texcoords
vt 0.208984 0.5
vt 0.990234 0.5
vt 0.994141 0.5

# verts
v -12 0 12
v -12 0 -12
v -12 23 12
v -12 23 -12
v -12 24 12
v -12 24 -12
v 12 0 12
v 12 0 -12
v 12 23 12
v 12 23 11
v 12 24 12
v 12 24 11
v 12 24 -12
v -12 0 12
v -12 23 12
v -12 24 12
v 12 0 12
v 12 23 12
v 12 24 12
v -12 0 -12
v -12 23 -12
v -12 24 -12
v -11 23 -12
v -11 24 -12
v 12 0 -12
v 12 24 -12
v -12 0 12
v 12 0 12
v -12 0 -12
v 12 0 -12
v -12 24 12
v 12 24 12
v -11 24 11
v 12 24 11
v -8 24 8
v -7 24 8
v -6 24 8
v -5 24 8
v -4 24 8
v -3 24 8
v -2 24 8
v 1 24 8
v 2 24 8
v 3 24 8
v 4 24 8
v 5 24 8
v 6 24 8
v 9 24 8
v -8 24 7
v -7 24 7
v -6 24 7
v -5 24 7
v -4 24 7
v -3 24 7
v -2 24 7
v 1 24 7
v 2 24 7
v 3 24 7
v 4 24 7
v 5 24 7
v 6 24 7
v 8 24 7
v -8 24 6
v -7 24 6
v -6 24 6
v 7 24 6
v -5 24 5
v 6 24 5
v 8 24 5
v 9 24 5
v 8 24 4
v 9 24 4
v -1 24 3
v 0 24 3
v 1 24 3
v 2 24 3
v 3 24 3
v 4 24 3
v -8 24 2
v -7 24 2
v -2 24 2
v -1 24 2
v 0 24 2
v 1 24 2
v 2 24 2
v 3 24 2
v 8 24 2
v 9 24 2
v -8 24 1
v -7 24 1
v -3 24 1
v -2 24 1
v 0 24 1
v 1 24 1
v 2 24 1
v 3 24 1
v 8 24 1
v 9 24 1
v -8 24 -0
v -7 24 -0
v 8 24 -0
v 9 24 -0
v -8 24 -1
v -7 24 -1
v 0 24 -1
v 1 24 -1
v 2 24 -1
v 3 24 -1
v 8 24 -1
v 9 24 -1
v -8 24 -2
v -7 24 -2
v 8 24 -2
v 9 24 -2
v -8 24 -3
v -7 24 -3
v 8 24 -3
v 9 24 -3
v -8 24 -4
v -7 24 -4
v -3 24 -4
v 4 24 -4
v -8 24 -5
v -7 24 -5
v -5 24 -6
v 6 24 -6
v 8 24 -6
v 9 24 -6
v -6 24 -7
v 7 24 -7
v 8 24 -7
v 9 24 -7
v -7 24 -8
v -6 24 -8
v -5 24 -8
v -3 24 -8
v -2 24 -8
v 1 24 -8
v 2 24 -8
v 3 24 -8
v 4 24 -8
v 5 24 -8
v 6 24 -8
v 8 24 -8
v -8 24 -9
v -6 24 -9
v -5 24 -9
v -3 24 -9
v -2 24 -9
v 1 24 -9
v 2 24 -9
v 3 24 -9
v 4 24 -9
v 5 24 -9
v 6 24 -9
v 9 24 -9
v -12 24 -12
v -11 24 -12
v 12 24 -12

# faces
f 3/3/1 2/3/1 1/3/1
f 4/3/1 2/3/1 3/3/1
f 5/2/1 4/2/1 3/2/1
f 6/2/1 4/2/1 5/2/1
f 7/3/2 8/3/2 9/3/2
f 9/3/2 8/3/2 10/3/2
f 9/2/2 10/2/2 11/2/2
f 10/3/2 8/3/2 12/3/2
f 11/2/2 10/2/2 12/2/2
f 12/3/2 8/3/2 13/3/2
f 17/3/3 15/3/3 14/3/3
f 18/2/3 16/2/3 15/2/3
f 18/3/3 15/3/3 17/3/3
f 19/2/3 16/2/3 18/2/3
f 20/3/4 21/3/4 23/3/4
f 21/2/4 22/2/4 23/2/4
f 23/2/4 22/2/4 24/2/4
f 20/3/4 23/3/4 25/3/4
f 23/3/4 24/3/4 25/3/4
f 25/3/4 24/3/4 26/3/4
f 29/3/5 28/3/5 27/3/5
f 30/3/5 28/3/5 29/3/5
f 31/2/6 32/2/6 33/2/6
f 33/2/6 32/2/6 34/2/6
f 33/3/6 34/3/6 35/3/6
f 35/3/6 34/3/6 36/3/6
f 36/3/6 34/3/6 37/3/6
f 37/3/6 34/3/6 38/3/6
f 38/3/6 34/3/6 39/3/6
f 39/3/6 34/3/6 40/3/6
f 40/3/6 34/3/6 41/3/6
f 41/3/6 34/3/6 42/3/6
f 42/3/6 34/3/6 43/3/6
f 43/3/6 34/3/6 44/3/6
f 44/3/6 34/3/6 45/3/6
f 45/3/6 34/3/6 46/3/6
f 46/3/6 34/3/6 47/3/6
f 47/3/6 34/3/6 48/3/6
f 33/3/6 35/3/6 49/3/6
f 35/1/6 36/1/6 49/1/6
f 36/3/6 37/3/6 50/3/6
f 49/1/6 36/1/6 50/1/6
f 37/1/6 38/1/6 51/1/6
f 50/3/6 37/3/6 51/3/6
f 38/3/6 39/3/6 52/3/6
f 51/1/6 38/1/6 52/1/6
f 39/1/6 40/1/6 53/1/6
f 52/3/6 39/3/6 53/3/6
f 40/3/6 41/3/6 54/3/6
f 53/1/6 40/1/6 54/1/6
f 41/1/6 42/1/6 55/1/6
f 54/3/6 41/3/6 55/3/6
f 42/3/6 43/3/6 56/3/6
f 55/1/6 42/1/6 56/1/6
f 43/1/6 44/1/6 57/1/6
f 56/3/6 43/3/6 57/3/6
f 44/3/6 45/3/6 58/3/6
f 57/1/6 44/1/6 58/1/6
f 45/1/6 46/1/6 59/1/6
f 58/3/6 45/3/6 59/3/6
f 46/3/6 47/3/6 60/3/6
f 59/1/6 46/1/6 60/1/6
f 47/1/6 48/1/6 61/1/6
f 60/3/6 47/3/6 61/3/6
f 61/1/6 48/1/6 62/1/6
f 59/3/6 60/3/6 63/3/6
f 33/3/6 49/3/6 63/3/6
f 61/3/6 62/3/6 63/3/6
f 60/3/6 61/3/6 63/3/6
f 58/3/6 59/3/6 63/3/6
f 57/3/6 58/3/6 63/3/6
f 56/3/6 57/3/6 63/3/6
f 55/3/6 56/3/6 63/3/6
f 54/3/6 55/3/6 63/3/6
f 53/3/6 54/3/6 63/3/6
f 52/3/6 53/3/6 63/3/6
f 51/3/6 52/3/6 63/3/6
f 50/3/6 51/3/6 63/3/6
f 49/3/6 50/3/6 63/3/6
f 63/3/6 62/3/6 64/3/6
f 64/3/6 62/3/6 65/3/6
f 65/3/6 62/3/6 66/3/6
f 65/1/6 66/1/6 67/1/6
f 67/1/6 66/1/6 68/1/6
f 62/1/6 48/1/6 69/1/6
f 66/3/6 62/3/6 69/3/6
f 48/3/6 34/3/6 70/3/6
f 69/1/6 48/1/6 70/1/6
f 66/3/6 69/3/6 71/3/6
f 69/3/6 70/3/6 71/3/6
f 70/3/6 34/3/6 72/3/6
f 71/3/6 70/3/6 72/3/6
f 67/3/6 68/3/6 73/3/6
f 73/3/6 68/3/6 74/3/6
f 74/3/6 68/3/6 75/3/6
f 75/3/6 68/3/6 76/3/6
f 76/3/6 68/3/6 77/3/6
f 77/3/6 68/3/6 78/3/6
f 33/3/6 63/3/6 79/3/6
f 63/1/6 64/1/6 79/1/6
f 64/3/6 65/3/6 80/3/6
f 79/1/6 64/1/6 80/1/6
f 67/3/6 73/3/6 81/3/6
f 73/2/6 74/2/6 82/2/6
f 81/3/6 73/3/6 82/3/6
f 74/3/6 75/3/6 83/3/6
f 82/2/6 74/2/6 83/2/6
f 75/2/6 76/2/6 84/2/6
f 83/3/6 75/3/6 84/3/6
f 76/3/6 77/3/6 85/3/6
f 84/2/6 76/2/6 85/2/6
f 77/2/6 78/2/6 86/2/6
f 85/3/6 77/3/6 86/3/6
f 66/3/6 71/3/6 87/3/6
f 71/1/6 72/1/6 87/1/6
f 72/3/6 34/3/6 88/3/6
f 87/1/6 72/1/6 88/1/6
f 33/3/6 79/3/6 89/3/6
f 79/3/6 80/3/6 89/3/6
f 80/3/6 65/3/6 90/3/6
f 89/3/6 80/3/6 90/3/6
f 67/3/6 81/3/6 91/3/6
f 84/2/6 85/2/6 92/2/6
f 91/3/6 81/3/6 92/3/6
f 85/2/6 86/2/6 92/2/6
f 81/2/6 82/2/6 92/2/6
f 82/2/6 83/2/6 92/2/6
f 83/2/6 84/2/6 92/2/6
f 92/2/6 86/2/6 93/2/6
f 93/2/6 86/2/6 94/2/6
f 94/2/6 86/2/6 95/2/6
f 86/2/6 78/2/6 96/2/6
f 95/2/6 86/2/6 96/2/6
f 66/3/6 87/3/6 97/3/6
f 87/3/6 88/3/6 97/3/6
f 88/3/6 34/3/6 98/3/6
f 97/3/6 88/3/6 98/3/6
f 89/1/6 90/1/6 99/1/6
f 33/3/6 89/3/6 99/3/6
f 90/3/6 65/3/6 100/3/6
f 99/1/6 90/1/6 100/1/6
f 66/3/6 97/3/6 101/3/6
f 97/1/6 98/1/6 101/1/6
f 98/3/6 34/3/6 102/3/6
f 101/1/6 98/1/6 102/1/6
f 99/3/6 100/3/6 103/3/6
f 33/3/6 99/3/6 103/3/6
f 100/3/6 65/3/6 104/3/6
f 103/3/6 100/3/6 104/3/6
f 91/2/6 92/2/6 105/2/6
f 92/2/6 93/2/6 105/2/6
f 93/3/6 94/3/6 105/3/6
f 94/2/6 95/2/6 106/2/6
f 105/3/6 94/3/6 106/3/6
f 95/3/6 96/3/6 107/3/6
f 106/2/6 95/2/6 107/2/6
f 96/2/6 78/2/6 108/2/6
f 107/3/6 96/3/6 108/3/6
f 66/3/6 101/3/6 109/3/6
f 101/3/6 102/3/6 109/3/6
f 102/3/6 34/3/6 110/3/6
f 109/3/6 102/3/6 110/3/6
f 33/3/6 103/3/6 111/3/6
f 103/1/6 104/1/6 111/1/6
f 104/3/6 65/3/6 112/3/6
f 111/1/6 104/1/6 112/1/6
f 66/3/6 109/3/6 113/3/6
f 109/1/6 110/1/6 113/1/6
f 110/3/6 34/3/6 114/3/6
f 113/1/6 110/1/6 114/1/6
f 33/3/6 111/3/6 115/3/6
f 111/3/6 112/3/6 115/3/6
f 112/3/6 65/3/6 116/3/6
f 115/3/6 112/3/6 116/3/6
f 66/3/6 113/3/6 117/3/6
f 113/3/6 114/3/6 117/3/6
f 114/3/6 34/3/6 118/3/6
f 117/3/6 114/3/6 118/3/6
f 33/3/6 115/3/6 119/3/6
f 115/1/6 116/1/6 119/1/6
f 116/3/6 65/3/6 120/3/6
f 119/1/6 116/1/6 120/1/6
f 91/2/6 105/2/6 121/2/6
f 67/3/6 91/3/6 121/3/6
f 106/2/6 107/2/6 121/2/6
f 107/2/6 108/2/6 121/2/6
f 105/2/6 106/2/6 121/2/6
f 78/3/6 68/3/6 122/3/6
f 121/2/6 108/2/6 122/2/6
f 108/2/6 78/2/6 122/2/6
f 119/3/6 120/3/6 123/3/6
f 33/3/6 119/3/6 123/3/6
f 120/3/6 65/3/6 124/3/6
f 123/3/6 120/3/6 124/3/6
f 67/3/6 121/3/6 125/3/6
f 121/3/6 122/3/6 125/3/6
f 65/1/6 67/1/6 125/1/6
f 68/1/6 66/1/6 126/1/6
f 125/3/6 122/3/6 126/3/6
f 122/3/6 68/3/6 126/3/6
f 66/3/6 117/3/6 127/3/6
f 117/1/6 118/1/6 127/1/6
f 118/3/6 34/3/6 128/3/6
f 127/1/6 118/1/6 128/1/6
f 65/1/6 125/1/6 129/1/6
f 124/3/6 65/3/6 129/3/6
f 125/1/6 126/1/6 129/1/6
f 127/3/6 128/3/6 130/3/6
f 129/1/6 126/1/6 130/1/6
f 126/1/6 66/1/6 130/1/6
f 66/3/6 127/3/6 130/3/6
f 130/3/6 128/3/6 131/3/6
f 128/3/6 34/3/6 132/3/6
f 131/3/6 128/3/6 132/3/6
f 130/3/6 131/3/6 133/3/6
f 124/3/6 129/3/6 133/3/6
f 123/1/6 124/1/6 133/1/6
f 129/3/6 130/3/6 133/3/6
f 133/3/6 131/3/6 134/3/6
f 134/3/6 131/3/6 135/3/6
f 135/3/6 131/3/6 136/3/6
f 136/3/6 131/3/6 137/3/6
f 137/3/6 131/3/6 138/3/6
f 138/3/6 131/3/6 139/3/6
f 139/3/6 131/3/6 140/3/6
f 140/3/6 131/3/6 141/3/6
f 141/3/6 131/3/6 142/3/6
f 142/3/6 131/3/6 143/3/6
f 131/1/6 132/1/6 144/1/6
f 143/3/6 131/3/6 144/3/6
f 33/3/6 123/3/6 145/3/6
f 123/1/6 133/1/6 145/1/6
f 133/1/6 134/1/6 145/1/6
f 134/3/6 135/3/6 146/3/6
f 145/1/6 134/1/6 146/1/6
f 135/1/6 136/1/6 147/1/6
f 146/3/6 135/3/6 147/3/6
f 136/3/6 137/3/6 148/3/6
f 147/1/6 136/1/6 148/1/6
f 137/1/6 138/1/6 149/1/6
f 148/3/6 137/3/6 149/3/6
f 138/3/6 139/3/6 150/3/6
f 149/1/6 138/1/6 150/1/6
f 139/1/6 140/1/6 151/1/6
f 150/3/6 139/3/6 151/3/6
f 140/3/6 141/3/6 152/3/6
f 151/1/6 140/1/6 152/1/6
f 141/1/6 142/1/6 153/1/6
f 152/3/6 141/3/6 153/3/6
f 142/3/6 143/3/6 154/3/6
f 153/1/6 142/1/6 154/1/6
f 143/1/6 144/1/6 155/1/6
f 154/3/6 143/3/6 155/3/6
f 144/1/6 132/1/6 156/1/6
f 155/1/6 144/1/6 156/1/6
f 132/3/6 34/3/6 156/3/6
f 31/2/6 33/2/6 157/2/6
f 154/3/6 155/3/6 158/3/6
f 157/2/6 33/2/6 158/2/6
f 150/3/6 151/3/6 158/3/6
f 155/3/6 156/3/6 158/3/6
f 149/3/6 150/3/6 158/3/6
f 148/3/6 149/3/6 158/3/6
f 147/3/6 148/3/6 158/3/6
f 146/3/6 147/3/6 158/3/6
f 145/3/6 146/3/6 158/3/6
f 33/3/6 145/3/6 158/3/6
f 151/3/6 152/3/6 158/3/6
f 153/3/6 154/3/6 158/3/6
f 152/3/6 153/3/6 158/3/6
f 156/3/6 34/3/6 159/3/6
f 158/3/6 156/3/6 159/3/6
