# MagicaVoxel @ Ephtracy

# group
g Hell-11

# material
mtllib Hell-11.mtl
usemtl palette

# normals
vn -1 0 0
vn 1 0 0
vn 0 0 1
vn 0 0 -1
vn 0 -1 0
vn 0 1 0

# texcoords
vt 0.146484 0.5
vt 0.923828 0.5
vt 0.966797 0.5
vt 0.990234 0.5
vt 0.994141 0.5

# verts
v -4 0 3
v -4 0 -4
v -4 1 3
v -4 1 -4
v -1 1 -0
v -1 1 -1
v -1 5 -0
v -1 5 -1
v -1 18 2
v -1 18 -0
v -1 18 -1
v -1 19 4
v -1 19 2
v -1 20 6
v -1 20 4
v -1 21 6
v -1 21 4
v -1 22 4
v -1 22 2
v -1 23 2
v -1 23 -0
v -1 23 -1
v -1 24 -0
v -1 24 -1
v 0 1 -0
v 0 1 -1
v 0 5 -0
v 0 5 -1
v 0 18 2
v 0 18 -0
v 0 18 -1
v 0 19 4
v 0 19 2
v 0 20 6
v 0 20 4
v 0 21 6
v 0 21 4
v 0 22 4
v 0 22 2
v 0 23 2
v 0 23 -0
v 0 23 -1
v 0 24 -0
v 0 24 -1
v 3 0 3
v 3 0 -4
v 3 1 3
v 3 1 -4
v -1 20 6
v -1 21 6
v 0 20 6
v 0 21 6
v -1 19 4
v -1 20 4
v -1 21 4
v -1 22 4
v 0 19 4
v 0 20 4
v 0 21 4
v 0 22 4
v -4 0 3
v -4 1 3
v 3 0 3
v 3 1 3
v -1 18 2
v -1 19 2
v -1 22 2
v -1 23 2
v 0 18 2
v 0 19 2
v 0 22 2
v 0 23 2
v -1 1 -0
v -1 5 -0
v -1 18 -0
v -1 23 -0
v -1 24 -0
v 0 1 -0
v 0 5 -0
v 0 18 -0
v 0 23 -0
v 0 24 -0
v -1 1 -1
v -1 5 -1
v -1 18 -1
v -1 23 -1
v -1 24 -1
v 0 1 -1
v 0 5 -1
v 0 18 -1
v 0 23 -1
v 0 24 -1
v -4 0 -4
v -4 1 -4
v 3 0 -4
v 3 1 -4
v -4 0 3
v 3 0 3
v -3 0 2
v 2 0 2
v -1 0 -0
v 0 0 -0
v -1 0 -1
v 0 0 -1
v -3 0 -3
v 2 0 -3
v -4 0 -4
v 3 0 -4
v -1 18 2
v 0 18 2
v -1 18 -0
v 0 18 -0
v -1 19 4
v 0 19 4
v -1 19 2
v 0 19 2
v -1 20 6
v 0 20 6
v -1 20 4
v 0 20 4
v -4 1 3
v 3 1 3
v -3 1 2
v 2 1 2
v -1 1 -0
v 0 1 -0
v -1 1 -1
v 0 1 -1
v -3 1 -3
v 2 1 -3
v -4 1 -4
v 3 1 -4
v -1 21 6
v 0 21 6
v -1 21 4
v 0 21 4
v -1 22 4
v 0 22 4
v -1 22 2
v 0 22 2
v -1 23 2
v 0 23 2
v -1 23 -0
v 0 23 -0
v -1 24 -0
v 0 24 -0
v -1 24 -1
v 0 24 -1

# faces
f 3/4/1 2/4/1 1/4/1
f 4/4/1 2/4/1 3/4/1
f 7/2/1 6/2/1 5/2/1
f 8/2/1 6/2/1 7/2/1
f 10/3/1 8/3/1 7/3/1
f 11/3/1 8/3/1 10/3/1
f 13/1/1 10/1/1 9/1/1
f 13/1/1 11/1/1 10/1/1
f 15/1/1 13/1/1 12/1/1
f 16/1/1 15/1/1 14/1/1
f 17/1/1 13/1/1 15/1/1
f 17/1/1 15/1/1 16/1/1
f 18/1/1 13/1/1 17/1/1
f 19/1/1 11/1/1 13/1/1
f 19/1/1 13/1/1 18/1/1
f 20/1/1 11/1/1 19/1/1
f 21/1/1 11/1/1 20/1/1
f 22/1/1 11/1/1 21/1/1
f 23/3/1 22/3/1 21/3/1
f 24/3/1 22/3/1 23/3/1
f 25/2/2 26/2/2 27/2/2
f 27/2/2 26/2/2 28/2/2
f 27/3/2 28/3/2 30/3/2
f 30/3/2 28/3/2 31/3/2
f 29/1/2 30/1/2 33/1/2
f 30/1/2 31/1/2 33/1/2
f 32/1/2 33/1/2 35/1/2
f 34/1/2 35/1/2 36/1/2
f 35/1/2 33/1/2 37/1/2
f 36/1/2 35/1/2 37/1/2
f 37/1/2 33/1/2 38/1/2
f 33/1/2 31/1/2 39/1/2
f 38/1/2 33/1/2 39/1/2
f 39/1/2 31/1/2 40/1/2
f 40/1/2 31/1/2 41/1/2
f 41/1/2 31/1/2 42/1/2
f 41/3/2 42/3/2 43/3/2
f 43/3/2 42/3/2 44/3/2
f 45/4/2 46/4/2 47/4/2
f 47/4/2 46/4/2 48/4/2
f 51/1/3 50/1/3 49/1/3
f 52/1/3 50/1/3 51/1/3
f 57/1/3 54/1/3 53/1/3
f 58/1/3 54/1/3 57/1/3
f 59/1/3 56/1/3 55/1/3
f 60/1/3 56/1/3 59/1/3
f 63/4/3 62/4/3 61/4/3
f 64/4/3 62/4/3 63/4/3
f 69/1/3 66/1/3 65/1/3
f 70/1/3 66/1/3 69/1/3
f 71/1/3 68/1/3 67/1/3
f 72/1/3 68/1/3 71/1/3
f 78/2/3 74/2/3 73/2/3
f 79/3/3 75/3/3 74/3/3
f 79/2/3 74/2/3 78/2/3
f 80/3/3 75/3/3 79/3/3
f 81/3/3 77/3/3 76/3/3
f 82/3/3 77/3/3 81/3/3
f 83/2/4 84/2/4 88/2/4
f 84/3/4 85/3/4 89/3/4
f 88/2/4 84/2/4 89/2/4
f 85/1/4 86/1/4 90/1/4
f 89/3/4 85/3/4 90/3/4
f 86/3/4 87/3/4 91/3/4
f 90/1/4 86/1/4 91/1/4
f 91/3/4 87/3/4 92/3/4
f 93/4/4 94/4/4 95/4/4
f 95/4/4 94/4/4 96/4/4
f 99/4/5 98/4/5 97/4/5
f 100/4/5 98/4/5 99/4/5
f 101/5/5 100/5/5 99/5/5
f 102/5/5 100/5/5 101/5/5
f 103/5/5 101/5/5 99/5/5
f 103/3/5 102/3/5 101/3/5
f 104/5/5 100/5/5 102/5/5
f 104/3/5 102/3/5 103/3/5
f 105/4/5 99/4/5 97/4/5
f 105/5/5 103/5/5 99/5/5
f 105/5/5 104/5/5 103/5/5
f 106/5/5 100/5/5 104/5/5
f 106/5/5 104/5/5 105/5/5
f 106/4/5 98/4/5 100/4/5
f 107/4/5 105/4/5 97/4/5
f 107/4/5 106/4/5 105/4/5
f 108/4/5 98/4/5 106/4/5
f 108/4/5 106/4/5 107/4/5
f 111/1/5 110/1/5 109/1/5
f 112/1/5 110/1/5 111/1/5
f 115/1/5 114/1/5 113/1/5
f 116/1/5 114/1/5 115/1/5
f 119/1/5 118/1/5 117/1/5
f 120/1/5 118/1/5 119/1/5
f 121/4/6 122/4/6 123/4/6
f 123/4/6 122/4/6 124/4/6
f 123/5/6 124/5/6 125/5/6
f 125/5/6 124/5/6 126/5/6
f 123/5/6 125/5/6 127/5/6
f 126/5/6 124/5/6 128/5/6
f 121/4/6 123/4/6 129/4/6
f 127/5/6 128/5/6 129/5/6
f 123/5/6 127/5/6 129/5/6
f 128/5/6 124/5/6 130/5/6
f 129/5/6 128/5/6 130/5/6
f 124/4/6 122/4/6 130/4/6
f 121/4/6 129/4/6 131/4/6
f 129/4/6 130/4/6 131/4/6
f 130/4/6 122/4/6 132/4/6
f 131/4/6 130/4/6 132/4/6
f 133/1/6 134/1/6 135/1/6
f 135/1/6 134/1/6 136/1/6
f 137/1/6 138/1/6 139/1/6
f 139/1/6 138/1/6 140/1/6
f 141/1/6 142/1/6 143/1/6
f 143/1/6 142/1/6 144/1/6
f 145/3/6 146/3/6 147/3/6
f 147/3/6 146/3/6 148/3/6
