# MagicaVoxel @ Ephtracy

# group
g Model-0

# material
mtllib Model-0.mtl
usemtl palette

# normals
vn -1 0 0
vn 1 0 0
vn 0 0 1
vn 0 0 -1
vn 0 -1 0
vn 0 1 0

# texcoords
vt 0.00195313 0.5
vt 0.146484 0.5
vt 0.705078 0.5
vt 0.904297 0.5
vt 0.958984 0.5
vt 0.994141 0.5

# verts
v -12 0 12
v -12 0 -12
v -12 24 12
v -12 24 -12
v -11 24 8
v -11 24 5
v -11 25 8
v -11 25 5
v -10 24 -10
v -10 24 -11
v -10 25 -10
v -10 25 -11
v -9 24 1
v -9 24 -2
v -9 25 1
v -9 25 -2
v -8 24 7
v -8 24 6
v -8 24 -5
v -8 24 -6
v -8 25 7
v -8 25 6
v -8 25 -5
v -8 25 -6
v -4 24 -8
v -4 24 -9
v -4 25 -8
v -4 25 -9
v -3 24 10
v -3 24 7
v -3 24 2
v -3 24 1
v -3 25 10
v -3 25 7
v -3 25 2
v -3 25 1
v -2 24 -2
v -2 24 -3
v -2 25 -2
v -2 25 -3
v 1 24 4
v 1 24 2
v 1 25 4
v 1 25 2
v 2 24 -8
v 2 24 -9
v 2 25 -8
v 2 25 -9
v 3 24 9
v 3 24 8
v 3 24 -0
v 3 24 -1
v 3 24 -3
v 3 24 -5
v 3 25 9
v 3 25 8
v 3 25 -0
v 3 25 -1
v 3 25 -3
v 3 25 -5
v 7 24 3
v 7 24 1
v 7 25 3
v 7 25 1
v 8 24 8
v 8 24 6
v 8 24 -5
v 8 24 -8
v 8 25 8
v 8 25 6
v 8 25 -5
v 8 25 -8
v 9 24 -0
v 9 24 -3
v 9 25 -0
v 9 25 -3
v -10 24 8
v -10 24 5
v -10 25 8
v -10 25 5
v -8 24 1
v -8 24 -2
v -8 24 -10
v -8 24 -11
v -8 25 1
v -8 25 -2
v -8 25 -10
v -8 25 -11
v -5 24 7
v -5 24 6
v -5 24 -5
v -5 24 -6
v -5 25 7
v -5 25 6
v -5 25 -5
v -5 25 -6
v -2 24 10
v -2 24 7
v -2 25 10
v -2 25 7
v -1 24 2
v -1 24 1
v -1 24 -8
v -1 24 -9
v -1 25 2
v -1 25 1
v -1 25 -8
v -1 25 -9
v 0 24 -2
v 0 24 -3
v 0 25 -2
v 0 25 -3
v 2 24 4
v 2 24 2
v 2 25 4
v 2 25 2
v 4 24 -3
v 4 24 -5
v 4 25 -3
v 4 25 -5
v 5 24 9
v 5 24 8
v 5 25 9
v 5 25 8
v 6 24 -0
v 6 24 -1
v 6 24 -8
v 6 24 -9
v 6 25 -0
v 6 25 -1
v 6 25 -8
v 6 25 -9
v 8 24 3
v 8 24 1
v 8 25 3
v 8 25 1
v 9 24 8
v 9 24 6
v 9 24 -5
v 9 24 -8
v 9 25 8
v 9 25 6
v 9 25 -5
v 9 25 -8
v 10 24 -0
v 10 24 -3
v 10 25 -0
v 10 25 -3
v 12 0 12
v 12 0 -12
v 12 24 12
v 12 24 -12
v -12 0 12
v -12 24 12
v -7 12 12
v -7 15 12
v -5 13 12
v -5 14 12
v -4 13 12
v -4 14 12
v -3 12 12
v -3 14 12
v -2 9 12
v -2 10 12
v -2 14 12
v -2 15 12
v 2 9 12
v 2 10 12
v 2 14 12
v 2 15 12
v 3 12 12
v 3 14 12
v 5 13 12
v 5 14 12
v 6 13 12
v 6 14 12
v 7 12 12
v 7 15 12
v 12 0 12
v 12 24 12
v -3 24 10
v -3 25 10
v -2 24 10
v -2 25 10
v 3 24 9
v 3 25 9
v 5 24 9
v 5 25 9
v -11 24 8
v -11 25 8
v -10 24 8
v -10 25 8
v 8 24 8
v 8 25 8
v 9 24 8
v 9 25 8
v -8 24 7
v -8 25 7
v -5 24 7
v -5 25 7
v 1 24 4
v 1 25 4
v 2 24 4
v 2 25 4
v 7 24 3
v 7 25 3
v 8 24 3
v 8 25 3
v -3 24 2
v -3 25 2
v -1 24 2
v -1 25 2
v -9 24 1
v -9 25 1
v -8 24 1
v -8 25 1
v 3 24 -0
v 3 25 -0
v 6 24 -0
v 6 25 -0
v 9 24 -0
v 9 25 -0
v 10 24 -0
v 10 25 -0
v -2 24 -2
v -2 25 -2
v 0 24 -2
v 0 25 -2
v 3 24 -3
v 3 25 -3
v 4 24 -3
v 4 25 -3
v -8 24 -5
v -8 25 -5
v -5 24 -5
v -5 25 -5
v 8 24 -5
v 8 25 -5
v 9 24 -5
v 9 25 -5
v -4 24 -8
v -4 25 -8
v -1 24 -8
v -1 25 -8
v 2 24 -8
v 2 25 -8
v 6 24 -8
v 6 25 -8
v -10 24 -10
v -10 25 -10
v -8 24 -10
v -8 25 -10
v 3 24 8
v 3 25 8
v 5 24 8
v 5 25 8
v -3 24 7
v -3 25 7
v -2 24 7
v -2 25 7
v -8 24 6
v -8 25 6
v -5 24 6
v -5 25 6
v 8 24 6
v 8 25 6
v 9 24 6
v 9 25 6
v -11 24 5
v -11 25 5
v -10 24 5
v -10 25 5
v 1 24 2
v 1 25 2
v 2 24 2
v 2 25 2
v -3 24 1
v -3 25 1
v -1 24 1
v -1 25 1
v 7 24 1
v 7 25 1
v 8 24 1
v 8 25 1
v 3 24 -1
v 3 25 -1
v 6 24 -1
v 6 25 -1
v -9 24 -2
v -9 25 -2
v -8 24 -2
v -8 25 -2
v -2 24 -3
v -2 25 -3
v 0 24 -3
v 0 25 -3
v 9 24 -3
v 9 25 -3
v 10 24 -3
v 10 25 -3
v 3 24 -5
v 3 25 -5
v 4 24 -5
v 4 25 -5
v -8 24 -6
v -8 25 -6
v -5 24 -6
v -5 25 -6
v 8 24 -8
v 8 25 -8
v 9 24 -8
v 9 25 -8
v -4 24 -9
v -4 25 -9
v -1 24 -9
v -1 25 -9
v 2 24 -9
v 2 25 -9
v 6 24 -9
v 6 25 -9
v -10 24 -11
v -10 25 -11
v -8 24 -11
v -8 25 -11
v -12 0 -12
v -12 24 -12
v 12 0 -12
v 12 24 -12
v -12 0 12
v 12 0 12
v -12 0 -12
v 12 0 -12
v -12 24 12
v 12 24 12
v -3 24 10
v -2 24 10
v 3 24 9
v 5 24 9
v -11 24 8
v -10 24 8
v 3 24 8
v 5 24 8
v 8 24 8
v 9 24 8
v -8 24 7
v -5 24 7
v -3 24 7
v -2 24 7
v -8 24 6
v -5 24 6
v 8 24 6
v 9 24 6
v -11 24 5
v -10 24 5
v 1 24 4
v 2 24 4
v 7 24 3
v 8 24 3
v -3 24 2
v -1 24 2
v 1 24 2
v 2 24 2
v -9 24 1
v -8 24 1
v -3 24 1
v -1 24 1
v 7 24 1
v 8 24 1
v 3 24 -0
v 6 24 -0
v 9 24 -0
v 10 24 -0
v 3 24 -1
v 6 24 -1
v -9 24 -2
v -8 24 -2
v -2 24 -2
v 0 24 -2
v -2 24 -3
v 0 24 -3
v 3 24 -3
v 4 24 -3
v 9 24 -3
v 10 24 -3
v -8 24 -5
v -5 24 -5
v 3 24 -5
v 4 24 -5
v 8 24 -5
v 9 24 -5
v -8 24 -6
v -5 24 -6
v -4 24 -8
v -1 24 -8
v 2 24 -8
v 6 24 -8
v 8 24 -8
v 9 24 -8
v -4 24 -9
v -1 24 -9
v 2 24 -9
v 6 24 -9
v -10 24 -10
v -8 24 -10
v -10 24 -11
v -8 24 -11
v -12 24 -12
v 12 24 -12
v -3 25 10
v -2 25 10
v 3 25 9
v 5 25 9
v -11 25 8
v -10 25 8
v 3 25 8
v 5 25 8
v 8 25 8
v 9 25 8
v -8 25 7
v -5 25 7
v -3 25 7
v -2 25 7
v -8 25 6
v -5 25 6
v 8 25 6
v 9 25 6
v -11 25 5
v -10 25 5
v 1 25 4
v 2 25 4
v 7 25 3
v 8 25 3
v -3 25 2
v -1 25 2
v 1 25 2
v 2 25 2
v -9 25 1
v -8 25 1
v -3 25 1
v -1 25 1
v 7 25 1
v 8 25 1
v 3 25 -0
v 6 25 -0
v 9 25 -0
v 10 25 -0
v 3 25 -1
v 6 25 -1
v -9 25 -2
v -8 25 -2
v -2 25 -2
v 0 25 -2
v -2 25 -3
v 0 25 -3
v 3 25 -3
v 4 25 -3
v 9 25 -3
v 10 25 -3
v -8 25 -5
v -5 25 -5
v 3 25 -5
v 4 25 -5
v 8 25 -5
v 9 25 -5
v -8 25 -6
v -5 25 -6
v -4 25 -8
v -1 25 -8
v 2 25 -8
v 6 25 -8
v 8 25 -8
v 9 25 -8
v -4 25 -9
v -1 25 -9
v 2 25 -9
v 6 25 -9
v -10 25 -10
v -8 25 -10
v -10 25 -11
v -8 25 -11

# faces
f 3/1/1 2/1/1 1/1/1
f 4/1/1 2/1/1 3/1/1
f 7/3/1 6/3/1 5/3/1
f 8/3/1 6/3/1 7/3/1
f 11/3/1 10/3/1 9/3/1
f 12/3/1 10/3/1 11/3/1
f 15/4/1 14/4/1 13/4/1
f 16/4/1 14/4/1 15/4/1
f 21/2/1 18/2/1 17/2/1
f 22/2/1 18/2/1 21/2/1
f 23/3/1 20/3/1 19/3/1
f 24/3/1 20/3/1 23/3/1
f 27/4/1 26/4/1 25/4/1
f 28/4/1 26/4/1 27/4/1
f 33/4/1 30/4/1 29/4/1
f 34/4/1 30/4/1 33/4/1
f 35/2/1 32/2/1 31/2/1
f 36/2/1 32/2/1 35/2/1
f 39/3/1 38/3/1 37/3/1
f 40/3/1 38/3/1 39/3/1
f 43/3/1 42/3/1 41/3/1
f 44/3/1 42/3/1 43/3/1
f 47/3/1 46/3/1 45/3/1
f 48/3/1 46/3/1 47/3/1
f 55/3/1 50/3/1 49/3/1
f 56/3/1 50/3/1 55/3/1
f 57/4/1 52/4/1 51/4/1
f 58/4/1 52/4/1 57/4/1
f 59/2/1 54/2/1 53/2/1
f 60/2/1 54/2/1 59/2/1
f 63/3/1 62/3/1 61/3/1
f 64/3/1 62/3/1 63/3/1
f 69/2/1 66/2/1 65/2/1
f 70/2/1 66/2/1 69/2/1
f 71/4/1 68/4/1 67/4/1
f 72/4/1 68/4/1 71/4/1
f 75/2/1 74/2/1 73/2/1
f 76/2/1 74/2/1 75/2/1
f 77/3/2 78/3/2 79/3/2
f 79/3/2 78/3/2 80/3/2
f 81/4/2 82/4/2 85/4/2
f 85/4/2 82/4/2 86/4/2
f 83/3/2 84/3/2 87/3/2
f 87/3/2 84/3/2 88/3/2
f 89/2/2 90/2/2 93/2/2
f 93/2/2 90/2/2 94/2/2
f 91/3/2 92/3/2 95/3/2
f 95/3/2 92/3/2 96/3/2
f 97/4/2 98/4/2 99/4/2
f 99/4/2 98/4/2 100/4/2
f 101/2/2 102/2/2 105/2/2
f 105/2/2 102/2/2 106/2/2
f 103/4/2 104/4/2 107/4/2
f 107/4/2 104/4/2 108/4/2
f 109/3/2 110/3/2 111/3/2
f 111/3/2 110/3/2 112/3/2
f 113/3/2 114/3/2 115/3/2
f 115/3/2 114/3/2 116/3/2
f 117/2/2 118/2/2 119/2/2
f 119/2/2 118/2/2 120/2/2
f 121/3/2 122/3/2 123/3/2
f 123/3/2 122/3/2 124/3/2
f 125/4/2 126/4/2 129/4/2
f 129/4/2 126/4/2 130/4/2
f 127/3/2 128/3/2 131/3/2
f 131/3/2 128/3/2 132/3/2
f 133/3/2 134/3/2 135/3/2
f 135/3/2 134/3/2 136/3/2
f 137/2/2 138/2/2 141/2/2
f 141/2/2 138/2/2 142/2/2
f 139/4/2 140/4/2 143/4/2
f 143/4/2 140/4/2 144/4/2
f 145/2/2 146/2/2 147/2/2
f 147/2/2 146/2/2 148/2/2
f 149/1/2 150/1/2 151/1/2
f 151/1/2 150/1/2 152/1/2
f 155/1/3 154/1/3 153/1/3
f 156/1/3 154/1/3 155/1/3
f 157/6/3 156/6/3 155/6/3
f 158/6/3 156/6/3 157/6/3
f 159/6/3 157/6/3 155/6/3
f 159/5/3 158/5/3 157/5/3
f 160/6/3 156/6/3 158/6/3
f 160/5/3 158/5/3 159/5/3
f 161/1/3 155/1/3 153/1/3
f 161/6/3 159/6/3 155/6/3
f 161/6/3 160/6/3 159/6/3
f 162/6/3 156/6/3 160/6/3
f 162/6/3 160/6/3 161/6/3
f 163/1/3 161/1/3 153/1/3
f 163/1/3 162/1/3 161/1/3
f 164/1/3 162/1/3 163/1/3
f 165/6/3 156/6/3 162/6/3
f 165/1/3 162/1/3 164/1/3
f 166/1/3 154/1/3 156/1/3
f 166/6/3 156/6/3 165/6/3
f 167/6/3 164/6/3 163/6/3
f 167/1/3 163/1/3 153/1/3
f 168/1/3 165/1/3 164/1/3
f 168/6/3 164/6/3 167/6/3
f 168/1/3 166/1/3 165/1/3
f 169/1/3 166/1/3 168/1/3
f 170/1/3 154/1/3 166/1/3
f 170/1/3 166/1/3 169/1/3
f 171/1/3 169/1/3 168/1/3
f 171/1/3 168/1/3 167/1/3
f 172/6/3 170/6/3 169/6/3
f 172/1/3 169/1/3 171/1/3
f 173/6/3 172/6/3 171/6/3
f 174/6/3 170/6/3 172/6/3
f 174/6/3 172/6/3 173/6/3
f 175/6/3 173/6/3 171/6/3
f 175/5/3 174/5/3 173/5/3
f 176/6/3 170/6/3 174/6/3
f 176/5/3 174/5/3 175/5/3
f 177/1/3 171/1/3 167/1/3
f 177/6/3 175/6/3 171/6/3
f 177/6/3 176/6/3 175/6/3
f 178/1/3 154/1/3 170/1/3
f 178/6/3 176/6/3 177/6/3
f 178/6/3 170/6/3 176/6/3
f 179/1/3 177/1/3 167/1/3
f 179/1/3 167/1/3 153/1/3
f 179/1/3 178/1/3 177/1/3
f 180/1/3 154/1/3 178/1/3
f 180/1/3 178/1/3 179/1/3
f 183/4/3 182/4/3 181/4/3
f 184/4/3 182/4/3 183/4/3
f 187/3/3 186/3/3 185/3/3
f 188/3/3 186/3/3 187/3/3
f 191/3/3 190/3/3 189/3/3
f 192/3/3 190/3/3 191/3/3
f 195/2/3 194/2/3 193/2/3
f 196/2/3 194/2/3 195/2/3
f 199/2/3 198/2/3 197/2/3
f 200/2/3 198/2/3 199/2/3
f 203/3/3 202/3/3 201/3/3
f 204/3/3 202/3/3 203/3/3
f 207/3/3 206/3/3 205/3/3
f 208/3/3 206/3/3 207/3/3
f 211/2/3 210/2/3 209/2/3
f 212/2/3 210/2/3 211/2/3
f 215/4/3 214/4/3 213/4/3
f 216/4/3 214/4/3 215/4/3
f 219/4/3 218/4/3 217/4/3
f 220/4/3 218/4/3 219/4/3
f 223/2/3 222/2/3 221/2/3
f 224/2/3 222/2/3 223/2/3
f 227/3/3 226/3/3 225/3/3
f 228/3/3 226/3/3 227/3/3
f 231/2/3 230/2/3 229/2/3
f 232/2/3 230/2/3 231/2/3
f 235/3/3 234/3/3 233/3/3
f 236/3/3 234/3/3 235/3/3
f 239/4/3 238/4/3 237/4/3
f 240/4/3 238/4/3 239/4/3
f 243/4/3 242/4/3 241/4/3
f 244/4/3 242/4/3 243/4/3
f 247/3/3 246/3/3 245/3/3
f 248/3/3 246/3/3 247/3/3
f 251/3/3 250/3/3 249/3/3
f 252/3/3 250/3/3 251/3/3
f 253/3/4 254/3/4 255/3/4
f 255/3/4 254/3/4 256/3/4
f 257/4/4 258/4/4 259/4/4
f 259/4/4 258/4/4 260/4/4
f 261/2/4 262/2/4 263/2/4
f 263/2/4 262/2/4 264/2/4
f 265/2/4 266/2/4 267/2/4
f 267/2/4 266/2/4 268/2/4
f 269/3/4 270/3/4 271/3/4
f 271/3/4 270/3/4 272/3/4
f 273/3/4 274/3/4 275/3/4
f 275/3/4 274/3/4 276/3/4
f 277/2/4 278/2/4 279/2/4
f 279/2/4 278/2/4 280/2/4
f 281/3/4 282/3/4 283/3/4
f 283/3/4 282/3/4 284/3/4
f 285/4/4 286/4/4 287/4/4
f 287/4/4 286/4/4 288/4/4
f 289/4/4 290/4/4 291/4/4
f 291/4/4 290/4/4 292/4/4
f 293/3/4 294/3/4 295/3/4
f 295/3/4 294/3/4 296/3/4
f 297/2/4 298/2/4 299/2/4
f 299/2/4 298/2/4 300/2/4
f 301/2/4 302/2/4 303/2/4
f 303/2/4 302/2/4 304/2/4
f 305/3/4 306/3/4 307/3/4
f 307/3/4 306/3/4 308/3/4
f 309/4/4 310/4/4 311/4/4
f 311/4/4 310/4/4 312/4/4
f 313/4/4 314/4/4 315/4/4
f 315/4/4 314/4/4 316/4/4
f 317/3/4 318/3/4 319/3/4
f 319/3/4 318/3/4 320/3/4
f 321/3/4 322/3/4 323/3/4
f 323/3/4 322/3/4 324/3/4
f 325/1/4 326/1/4 327/1/4
f 327/1/4 326/1/4 328/1/4
f 331/1/5 330/1/5 329/1/5
f 332/1/5 330/1/5 331/1/5
f 333/1/6 334/1/6 335/1/6
f 335/1/6 334/1/6 336/1/6
f 336/1/6 334/1/6 337/1/6
f 337/1/6 334/1/6 338/1/6
f 333/1/6 335/1/6 339/1/6
f 339/1/6 335/1/6 340/1/6
f 336/1/6 337/1/6 341/1/6
f 338/1/6 334/1/6 342/1/6
f 342/1/6 334/1/6 343/1/6
f 343/1/6 334/1/6 344/1/6
f 340/1/6 335/1/6 345/1/6
f 345/1/6 335/1/6 346/1/6
f 346/1/6 335/1/6 347/1/6
f 336/1/6 341/1/6 348/1/6
f 342/1/6 343/1/6 348/1/6
f 341/1/6 342/1/6 348/1/6
f 340/1/6 345/1/6 349/1/6
f 346/1/6 347/1/6 350/1/6
f 347/1/6 348/1/6 350/1/6
f 348/1/6 343/1/6 351/1/6
f 350/1/6 348/1/6 351/1/6
f 344/1/6 334/1/6 352/1/6
f 333/1/6 339/1/6 353/1/6
f 340/1/6 349/1/6 354/1/6
f 350/1/6 351/1/6 354/1/6
f 351/1/6 352/1/6 354/1/6
f 349/1/6 350/1/6 354/1/6
f 354/1/6 352/1/6 355/1/6
f 353/1/6 354/1/6 355/1/6
f 355/1/6 352/1/6 356/1/6
f 356/1/6 352/1/6 357/1/6
f 357/1/6 352/1/6 358/1/6
f 353/1/6 355/1/6 359/1/6
f 359/1/6 355/1/6 360/1/6
f 360/1/6 355/1/6 361/1/6
f 356/1/6 357/1/6 362/1/6
f 353/1/6 359/1/6 363/1/6
f 363/1/6 359/1/6 364/1/6
f 364/1/6 359/1/6 365/1/6
f 360/1/6 361/1/6 366/1/6
f 361/1/6 362/1/6 366/1/6
f 362/1/6 357/1/6 367/1/6
f 366/1/6 362/1/6 367/1/6
f 358/1/6 352/1/6 368/1/6
f 366/1/6 367/1/6 369/1/6
f 367/1/6 368/1/6 369/1/6
f 364/1/6 365/1/6 369/1/6
f 365/1/6 366/1/6 369/1/6
f 369/1/6 368/1/6 370/1/6
f 352/1/6 334/1/6 371/1/6
f 370/1/6 368/1/6 371/1/6
f 368/1/6 352/1/6 371/1/6
f 371/1/6 334/1/6 372/1/6
f 364/1/6 369/1/6 373/1/6
f 370/1/6 371/1/6 374/1/6
f 353/1/6 363/1/6 375/1/6
f 364/1/6 373/1/6 376/1/6
f 373/1/6 374/1/6 376/1/6
f 376/1/6 374/1/6 377/1/6
f 377/1/6 374/1/6 378/1/6
f 375/1/6 376/1/6 379/1/6
f 376/1/6 377/1/6 379/1/6
f 378/1/6 374/1/6 380/1/6
f 380/1/6 374/1/6 381/1/6
f 381/1/6 374/1/6 382/1/6
f 374/1/6 371/1/6 383/1/6
f 382/1/6 374/1/6 383/1/6
f 372/1/6 334/1/6 384/1/6
f 375/1/6 379/1/6 385/1/6
f 379/1/6 380/1/6 385/1/6
f 380/1/6 381/1/6 385/1/6
f 385/1/6 381/1/6 386/1/6
f 386/1/6 381/1/6 387/1/6
f 382/1/6 383/1/6 388/1/6
f 383/1/6 384/1/6 388/1/6
f 388/1/6 384/1/6 389/1/6
f 389/1/6 384/1/6 390/1/6
f 375/1/6 385/1/6 391/1/6
f 386/1/6 387/1/6 392/1/6
f 388/1/6 389/1/6 392/1/6
f 387/1/6 388/1/6 392/1/6
f 392/1/6 389/1/6 393/1/6
f 391/1/6 392/1/6 393/1/6
f 393/1/6 389/1/6 394/1/6
f 394/1/6 389/1/6 395/1/6
f 395/1/6 389/1/6 396/1/6
f 396/1/6 389/1/6 397/1/6
f 390/1/6 384/1/6 398/1/6
f 391/1/6 393/1/6 399/1/6
f 394/1/6 395/1/6 400/1/6
f 400/1/6 395/1/6 401/1/6
f 396/1/6 397/1/6 402/1/6
f 397/1/6 398/1/6 402/1/6
f 375/1/6 391/1/6 403/1/6
f 401/1/6 402/1/6 403/1/6
f 353/1/6 375/1/6 403/1/6
f 400/1/6 401/1/6 403/1/6
f 399/1/6 400/1/6 403/1/6
f 391/1/6 399/1/6 403/1/6
f 403/1/6 402/1/6 404/1/6
f 353/1/6 403/1/6 405/1/6
f 404/1/6 402/1/6 406/1/6
f 333/1/6 353/1/6 407/1/6
f 405/1/6 406/1/6 407/1/6
f 353/1/6 405/1/6 407/1/6
f 406/1/6 402/1/6 408/1/6
f 407/1/6 406/1/6 408/1/6
f 402/1/6 398/1/6 408/1/6
f 384/1/6 334/1/6 408/1/6
f 398/1/6 384/1/6 408/1/6
f 411/3/6 412/3/6 415/3/6
f 415/3/6 412/3/6 416/3/6
f 409/4/6 410/4/6 421/4/6
f 421/4/6 410/4/6 422/4/6
f 419/2/6 420/2/6 423/2/6
f 423/2/6 420/2/6 424/2/6
f 417/2/6 418/2/6 425/2/6
f 425/2/6 418/2/6 426/2/6
f 413/3/6 414/3/6 427/3/6
f 427/3/6 414/3/6 428/3/6
f 429/3/6 430/3/6 435/3/6
f 435/3/6 430/3/6 436/3/6
f 433/2/6 434/2/6 439/2/6
f 439/2/6 434/2/6 440/2/6
f 431/3/6 432/3/6 441/3/6
f 441/3/6 432/3/6 442/3/6
f 443/4/6 444/4/6 447/4/6
f 447/4/6 444/4/6 448/4/6
f 437/4/6 438/4/6 449/4/6
f 449/4/6 438/4/6 450/4/6
f 451/3/6 452/3/6 453/3/6
f 453/3/6 452/3/6 454/3/6
f 445/2/6 446/2/6 457/2/6
f 457/2/6 446/2/6 458/2/6
f 455/2/6 456/2/6 461/2/6
f 461/2/6 456/2/6 462/2/6
f 459/3/6 460/3/6 465/3/6
f 465/3/6 460/3/6 466/3/6
f 463/4/6 464/4/6 471/4/6
f 471/4/6 464/4/6 472/4/6
f 467/4/6 468/4/6 473/4/6
f 473/4/6 468/4/6 474/4/6
f 469/3/6 470/3/6 475/3/6
f 475/3/6 470/3/6 476/3/6
f 477/3/6 478/3/6 479/3/6
f 479/3/6 478/3/6 480/3/6
