# MagicaVoxel @ Ephtracy

# group
g Block_-0

# material
mtllib Block_-0.mtl
usemtl palette

# normals
vn -1 0 0
vn 1 0 0
vn 0 0 1
vn 0 0 -1
vn 0 -1 0
vn 0 1 0

# texcoords
vt 0.00195313 0.5
vt 0.146484 0.5
vt 0.244141 0.5
vt 0.275391 0.5
vt 0.705078 0.5
vt 0.904297 0.5
vt 0.958984 0.5
vt 0.994141 0.5

# verts
v -12 0 12
v -12 0 -12
v -12 17 12
v -12 17 -12
v -12 24 12
v -12 24 -12
v -11 24 8
v -11 24 5
v -11 25 8
v -11 25 5
v -10 24 -10
v -10 24 -11
v -10 25 -10
v -10 25 -11
v -9 24 1
v -9 24 -2
v -9 25 1
v -9 25 -2
v -8 24 7
v -8 24 6
v -8 24 -5
v -8 24 -6
v -8 25 7
v -8 25 6
v -8 25 -5
v -8 25 -6
v -4 24 -8
v -4 24 -9
v -4 25 -8
v -4 25 -9
v -3 24 10
v -3 24 7
v -3 24 2
v -3 24 1
v -3 25 10
v -3 25 7
v -3 25 2
v -3 25 1
v -2 24 -2
v -2 24 -3
v -2 25 -2
v -2 25 -3
v 1 24 4
v 1 24 2
v 1 25 4
v 1 25 2
v 2 24 -8
v 2 24 -9
v 2 25 -8
v 2 25 -9
v 3 24 9
v 3 24 8
v 3 24 -0
v 3 24 -1
v 3 24 -3
v 3 24 -5
v 3 25 9
v 3 25 8
v 3 25 -0
v 3 25 -1
v 3 25 -3
v 3 25 -5
v 7 24 3
v 7 24 1
v 7 25 3
v 7 25 1
v 8 24 8
v 8 24 6
v 8 24 -5
v 8 24 -8
v 8 25 8
v 8 25 6
v 8 25 -5
v 8 25 -8
v 9 24 -0
v 9 24 -3
v 9 25 -0
v 9 25 -3
v -10 24 8
v -10 24 5
v -10 25 8
v -10 25 5
v -8 24 1
v -8 24 -2
v -8 24 -10
v -8 24 -11
v -8 25 1
v -8 25 -2
v -8 25 -10
v -8 25 -11
v -5 24 7
v -5 24 6
v -5 24 -5
v -5 24 -6
v -5 25 7
v -5 25 6
v -5 25 -5
v -5 25 -6
v -2 24 10
v -2 24 7
v -2 25 10
v -2 25 7
v -1 24 2
v -1 24 1
v -1 24 -8
v -1 24 -9
v -1 25 2
v -1 25 1
v -1 25 -8
v -1 25 -9
v 0 24 -2
v 0 24 -3
v 0 25 -2
v 0 25 -3
v 2 24 4
v 2 24 2
v 2 25 4
v 2 25 2
v 4 24 -3
v 4 24 -5
v 4 25 -3
v 4 25 -5
v 5 24 9
v 5 24 8
v 5 25 9
v 5 25 8
v 6 24 -0
v 6 24 -1
v 6 24 -8
v 6 24 -9
v 6 25 -0
v 6 25 -1
v 6 25 -8
v 6 25 -9
v 8 24 3
v 8 24 1
v 8 25 3
v 8 25 1
v 9 24 8
v 9 24 6
v 9 24 -5
v 9 24 -8
v 9 25 8
v 9 25 6
v 9 25 -5
v 9 25 -8
v 10 24 -0
v 10 24 -3
v 10 25 -0
v 10 25 -3
v 12 0 12
v 12 0 -12
v 12 17 12
v 12 17 -12
v 12 24 12
v 12 24 -12
v -12 0 12
v -12 17 12
v -12 24 12
v -8 11 12
v -8 15 12
v -8 17 12
v -8 20 12
v -7 12 12
v -7 15 12
v -7 17 12
v -7 20 12
v -5 13 12
v -5 14 12
v -4 13 12
v -4 14 12
v -3 11 12
v -3 12 12
v -3 14 12
v -2 9 12
v -2 10 12
v -2 14 12
v -2 15 12
v 2 9 12
v 2 10 12
v 2 14 12
v 2 15 12
v 3 11 12
v 3 12 12
v 3 14 12
v 5 13 12
v 5 14 12
v 6 13 12
v 6 14 12
v 7 12 12
v 7 15 12
v 8 11 12
v 8 15 12
v 12 0 12
v 12 17 12
v 12 24 12
v -3 24 10
v -3 25 10
v -2 24 10
v -2 25 10
v 3 24 9
v 3 25 9
v 5 24 9
v 5 25 9
v -11 24 8
v -11 25 8
v -10 24 8
v -10 25 8
v 8 24 8
v 8 25 8
v 9 24 8
v 9 25 8
v -8 24 7
v -8 25 7
v -5 24 7
v -5 25 7
v 1 24 4
v 1 25 4
v 2 24 4
v 2 25 4
v 7 24 3
v 7 25 3
v 8 24 3
v 8 25 3
v -3 24 2
v -3 25 2
v -1 24 2
v -1 25 2
v -9 24 1
v -9 25 1
v -8 24 1
v -8 25 1
v 3 24 -0
v 3 25 -0
v 6 24 -0
v 6 25 -0
v 9 24 -0
v 9 25 -0
v 10 24 -0
v 10 25 -0
v -2 24 -2
v -2 25 -2
v 0 24 -2
v 0 25 -2
v 3 24 -3
v 3 25 -3
v 4 24 -3
v 4 25 -3
v -8 24 -5
v -8 25 -5
v -5 24 -5
v -5 25 -5
v 8 24 -5
v 8 25 -5
v 9 24 -5
v 9 25 -5
v -4 24 -8
v -4 25 -8
v -1 24 -8
v -1 25 -8
v 2 24 -8
v 2 25 -8
v 6 24 -8
v 6 25 -8
v -10 24 -10
v -10 25 -10
v -8 24 -10
v -8 25 -10
v 3 24 8
v 3 25 8
v 5 24 8
v 5 25 8
v -3 24 7
v -3 25 7
v -2 24 7
v -2 25 7
v -8 24 6
v -8 25 6
v -5 24 6
v -5 25 6
v 8 24 6
v 8 25 6
v 9 24 6
v 9 25 6
v -11 24 5
v -11 25 5
v -10 24 5
v -10 25 5
v 1 24 2
v 1 25 2
v 2 24 2
v 2 25 2
v -3 24 1
v -3 25 1
v -1 24 1
v -1 25 1
v 7 24 1
v 7 25 1
v 8 24 1
v 8 25 1
v 3 24 -1
v 3 25 -1
v 6 24 -1
v 6 25 -1
v -9 24 -2
v -9 25 -2
v -8 24 -2
v -8 25 -2
v -2 24 -3
v -2 25 -3
v 0 24 -3
v 0 25 -3
v 9 24 -3
v 9 25 -3
v 10 24 -3
v 10 25 -3
v 3 24 -5
v 3 25 -5
v 4 24 -5
v 4 25 -5
v -8 24 -6
v -8 25 -6
v -5 24 -6
v -5 25 -6
v 8 24 -8
v 8 25 -8
v 9 24 -8
v 9 25 -8
v -4 24 -9
v -4 25 -9
v -1 24 -9
v -1 25 -9
v 2 24 -9
v 2 25 -9
v 6 24 -9
v 6 25 -9
v -10 24 -11
v -10 25 -11
v -8 24 -11
v -8 25 -11
v -12 0 -12
v -12 17 -12
v -12 24 -12
v 12 0 -12
v 12 17 -12
v 12 24 -12
v -12 0 12
v 12 0 12
v -12 0 -12
v 12 0 -12
v -12 24 12
v 12 24 12
v -3 24 10
v -2 24 10
v 3 24 9
v 5 24 9
v -11 24 8
v -10 24 8
v 3 24 8
v 5 24 8
v 8 24 8
v 9 24 8
v -8 24 7
v -5 24 7
v -3 24 7
v -2 24 7
v -8 24 6
v -5 24 6
v 8 24 6
v 9 24 6
v -11 24 5
v -10 24 5
v 1 24 4
v 2 24 4
v 7 24 3
v 8 24 3
v -3 24 2
v -1 24 2
v 1 24 2
v 2 24 2
v -9 24 1
v -8 24 1
v -3 24 1
v -1 24 1
v 7 24 1
v 8 24 1
v 3 24 -0
v 6 24 -0
v 9 24 -0
v 10 24 -0
v 3 24 -1
v 6 24 -1
v -9 24 -2
v -8 24 -2
v -2 24 -2
v 0 24 -2
v -2 24 -3
v 0 24 -3
v 3 24 -3
v 4 24 -3
v 9 24 -3
v 10 24 -3
v -8 24 -5
v -5 24 -5
v 3 24 -5
v 4 24 -5
v 8 24 -5
v 9 24 -5
v -8 24 -6
v -5 24 -6
v -4 24 -8
v -1 24 -8
v 2 24 -8
v 6 24 -8
v 8 24 -8
v 9 24 -8
v -4 24 -9
v -1 24 -9
v 2 24 -9
v 6 24 -9
v -10 24 -10
v -8 24 -10
v -10 24 -11
v -8 24 -11
v -12 24 -12
v 12 24 -12
v -3 25 10
v -2 25 10
v 3 25 9
v 5 25 9
v -11 25 8
v -10 25 8
v 3 25 8
v 5 25 8
v 8 25 8
v 9 25 8
v -8 25 7
v -5 25 7
v -3 25 7
v -2 25 7
v -8 25 6
v -5 25 6
v 8 25 6
v 9 25 6
v -11 25 5
v -10 25 5
v 1 25 4
v 2 25 4
v 7 25 3
v 8 25 3
v -3 25 2
v -1 25 2
v 1 25 2
v 2 25 2
v -9 25 1
v -8 25 1
v -3 25 1
v -1 25 1
v 7 25 1
v 8 25 1
v 3 25 -0
v 6 25 -0
v 9 25 -0
v 10 25 -0
v 3 25 -1
v 6 25 -1
v -9 25 -2
v -8 25 -2
v -2 25 -2
v 0 25 -2
v -2 25 -3
v 0 25 -3
v 3 25 -3
v 4 25 -3
v 9 25 -3
v 10 25 -3
v -8 25 -5
v -5 25 -5
v 3 25 -5
v 4 25 -5
v 8 25 -5
v 9 25 -5
v -8 25 -6
v -5 25 -6
v -4 25 -8
v -1 25 -8
v 2 25 -8
v 6 25 -8
v 8 25 -8
v 9 25 -8
v -4 25 -9
v -1 25 -9
v 2 25 -9
v 6 25 -9
v -10 25 -10
v -8 25 -10
v -10 25 -11
v -8 25 -11

# faces
f 3/3/1 2/3/1 1/3/1
f 4/3/1 2/3/1 3/3/1
f 5/1/1 4/1/1 3/1/1
f 6/1/1 4/1/1 5/1/1
f 9/5/1 8/5/1 7/5/1
f 10/5/1 8/5/1 9/5/1
f 13/5/1 12/5/1 11/5/1
f 14/5/1 12/5/1 13/5/1
f 17/6/1 16/6/1 15/6/1
f 18/6/1 16/6/1 17/6/1
f 23/2/1 20/2/1 19/2/1
f 24/2/1 20/2/1 23/2/1
f 25/5/1 22/5/1 21/5/1
f 26/5/1 22/5/1 25/5/1
f 29/6/1 28/6/1 27/6/1
f 30/6/1 28/6/1 29/6/1
f 35/6/1 32/6/1 31/6/1
f 36/6/1 32/6/1 35/6/1
f 37/2/1 34/2/1 33/2/1
f 38/2/1 34/2/1 37/2/1
f 41/5/1 40/5/1 39/5/1
f 42/5/1 40/5/1 41/5/1
f 45/5/1 44/5/1 43/5/1
f 46/5/1 44/5/1 45/5/1
f 49/5/1 48/5/1 47/5/1
f 50/5/1 48/5/1 49/5/1
f 57/5/1 52/5/1 51/5/1
f 58/5/1 52/5/1 57/5/1
f 59/6/1 54/6/1 53/6/1
f 60/6/1 54/6/1 59/6/1
f 61/2/1 56/2/1 55/2/1
f 62/2/1 56/2/1 61/2/1
f 65/5/1 64/5/1 63/5/1
f 66/5/1 64/5/1 65/5/1
f 71/2/1 68/2/1 67/2/1
f 72/2/1 68/2/1 71/2/1
f 73/6/1 70/6/1 69/6/1
f 74/6/1 70/6/1 73/6/1
f 77/2/1 76/2/1 75/2/1
f 78/2/1 76/2/1 77/2/1
f 79/5/2 80/5/2 81/5/2
f 81/5/2 80/5/2 82/5/2
f 83/6/2 84/6/2 87/6/2
f 87/6/2 84/6/2 88/6/2
f 85/5/2 86/5/2 89/5/2
f 89/5/2 86/5/2 90/5/2
f 91/2/2 92/2/2 95/2/2
f 95/2/2 92/2/2 96/2/2
f 93/5/2 94/5/2 97/5/2
f 97/5/2 94/5/2 98/5/2
f 99/6/2 100/6/2 101/6/2
f 101/6/2 100/6/2 102/6/2
f 103/2/2 104/2/2 107/2/2
f 107/2/2 104/2/2 108/2/2
f 105/6/2 106/6/2 109/6/2
f 109/6/2 106/6/2 110/6/2
f 111/5/2 112/5/2 113/5/2
f 113/5/2 112/5/2 114/5/2
f 115/5/2 116/5/2 117/5/2
f 117/5/2 116/5/2 118/5/2
f 119/2/2 120/2/2 121/2/2
f 121/2/2 120/2/2 122/2/2
f 123/5/2 124/5/2 125/5/2
f 125/5/2 124/5/2 126/5/2
f 127/6/2 128/6/2 131/6/2
f 131/6/2 128/6/2 132/6/2
f 129/5/2 130/5/2 133/5/2
f 133/5/2 130/5/2 134/5/2
f 135/5/2 136/5/2 137/5/2
f 137/5/2 136/5/2 138/5/2
f 139/2/2 140/2/2 143/2/2
f 143/2/2 140/2/2 144/2/2
f 141/6/2 142/6/2 145/6/2
f 145/6/2 142/6/2 146/6/2
f 147/2/2 148/2/2 149/2/2
f 149/2/2 148/2/2 150/2/2
f 151/3/2 152/3/2 153/3/2
f 153/3/2 152/3/2 154/3/2
f 153/1/2 154/1/2 155/1/2
f 155/1/2 154/1/2 156/1/2
f 160/3/3 158/3/3 157/3/3
f 161/3/3 158/3/3 160/3/3
f 162/1/3 159/1/3 158/1/3
f 162/3/3 158/3/3 161/3/3
f 163/1/3 159/1/3 162/1/3
f 164/4/3 161/4/3 160/4/3
f 165/3/3 162/3/3 161/3/3
f 165/4/3 161/4/3 164/4/3
f 165/3/3 163/3/3 162/3/3
f 166/3/3 163/3/3 165/3/3
f 167/1/3 159/1/3 163/1/3
f 167/3/3 163/3/3 166/3/3
f 168/8/3 165/8/3 164/8/3
f 169/8/3 165/8/3 168/8/3
f 170/8/3 168/8/3 164/8/3
f 170/7/3 169/7/3 168/7/3
f 171/8/3 165/8/3 169/8/3
f 171/7/3 169/7/3 170/7/3
f 172/3/3 160/3/3 157/3/3
f 172/4/3 164/4/3 160/4/3
f 173/8/3 171/8/3 170/8/3
f 173/4/3 164/4/3 172/4/3
f 173/8/3 170/8/3 164/8/3
f 174/8/3 165/8/3 171/8/3
f 174/8/3 171/8/3 173/8/3
f 175/3/3 173/3/3 172/3/3
f 175/3/3 172/3/3 157/3/3
f 175/3/3 174/3/3 173/3/3
f 176/3/3 174/3/3 175/3/3
f 177/8/3 165/8/3 174/8/3
f 177/3/3 174/3/3 176/3/3
f 178/3/3 166/3/3 165/3/3
f 178/8/3 165/8/3 177/8/3
f 179/8/3 176/8/3 175/8/3
f 179/3/3 175/3/3 157/3/3
f 180/3/3 177/3/3 176/3/3
f 180/8/3 176/8/3 179/8/3
f 180/3/3 178/3/3 177/3/3
f 181/3/3 178/3/3 180/3/3
f 182/3/3 166/3/3 178/3/3
f 182/3/3 178/3/3 181/3/3
f 183/3/3 181/3/3 180/3/3
f 183/3/3 180/3/3 179/3/3
f 184/3/3 181/3/3 183/3/3
f 185/8/3 182/8/3 181/8/3
f 185/3/3 181/3/3 184/3/3
f 186/8/3 185/8/3 184/8/3
f 187/8/3 182/8/3 185/8/3
f 187/8/3 185/8/3 186/8/3
f 188/8/3 186/8/3 184/8/3
f 188/7/3 187/7/3 186/7/3
f 189/8/3 182/8/3 187/8/3
f 189/7/3 187/7/3 188/7/3
f 190/4/3 184/4/3 183/4/3
f 190/8/3 188/8/3 184/8/3
f 190/8/3 189/8/3 188/8/3
f 191/3/3 166/3/3 182/3/3
f 191/8/3 189/8/3 190/8/3
f 191/8/3 182/8/3 189/8/3
f 192/4/3 190/4/3 183/4/3
f 192/3/3 183/3/3 179/3/3
f 192/4/3 191/4/3 190/4/3
f 193/3/3 166/3/3 191/3/3
f 193/4/3 191/4/3 192/4/3
f 194/3/3 179/3/3 157/3/3
f 194/3/3 192/3/3 179/3/3
f 194/3/3 193/3/3 192/3/3
f 195/3/3 166/3/3 193/3/3
f 195/3/3 193/3/3 194/3/3
f 195/1/3 167/1/3 166/1/3
f 196/1/3 159/1/3 167/1/3
f 196/1/3 167/1/3 195/1/3
f 199/6/3 198/6/3 197/6/3
f 200/6/3 198/6/3 199/6/3
f 203/5/3 202/5/3 201/5/3
f 204/5/3 202/5/3 203/5/3
f 207/5/3 206/5/3 205/5/3
f 208/5/3 206/5/3 207/5/3
f 211/2/3 210/2/3 209/2/3
f 212/2/3 210/2/3 211/2/3
f 215/2/3 214/2/3 213/2/3
f 216/2/3 214/2/3 215/2/3
f 219/5/3 218/5/3 217/5/3
f 220/5/3 218/5/3 219/5/3
f 223/5/3 222/5/3 221/5/3
f 224/5/3 222/5/3 223/5/3
f 227/2/3 226/2/3 225/2/3
f 228/2/3 226/2/3 227/2/3
f 231/6/3 230/6/3 229/6/3
f 232/6/3 230/6/3 231/6/3
f 235/6/3 234/6/3 233/6/3
f 236/6/3 234/6/3 235/6/3
f 239/2/3 238/2/3 237/2/3
f 240/2/3 238/2/3 239/2/3
f 243/5/3 242/5/3 241/5/3
f 244/5/3 242/5/3 243/5/3
f 247/2/3 246/2/3 245/2/3
f 248/2/3 246/2/3 247/2/3
f 251/5/3 250/5/3 249/5/3
f 252/5/3 250/5/3 251/5/3
f 255/6/3 254/6/3 253/6/3
f 256/6/3 254/6/3 255/6/3
f 259/6/3 258/6/3 257/6/3
f 260/6/3 258/6/3 259/6/3
f 263/5/3 262/5/3 261/5/3
f 264/5/3 262/5/3 263/5/3
f 267/5/3 266/5/3 265/5/3
f 268/5/3 266/5/3 267/5/3
f 269/5/4 270/5/4 271/5/4
f 271/5/4 270/5/4 272/5/4
f 273/6/4 274/6/4 275/6/4
f 275/6/4 274/6/4 276/6/4
f 277/2/4 278/2/4 279/2/4
f 279/2/4 278/2/4 280/2/4
f 281/2/4 282/2/4 283/2/4
f 283/2/4 282/2/4 284/2/4
f 285/5/4 286/5/4 287/5/4
f 287/5/4 286/5/4 288/5/4
f 289/5/4 290/5/4 291/5/4
f 291/5/4 290/5/4 292/5/4
f 293/2/4 294/2/4 295/2/4
f 295/2/4 294/2/4 296/2/4
f 297/5/4 298/5/4 299/5/4
f 299/5/4 298/5/4 300/5/4
f 301/6/4 302/6/4 303/6/4
f 303/6/4 302/6/4 304/6/4
f 305/6/4 306/6/4 307/6/4
f 307/6/4 306/6/4 308/6/4
f 309/5/4 310/5/4 311/5/4
f 311/5/4 310/5/4 312/5/4
f 313/2/4 314/2/4 315/2/4
f 315/2/4 314/2/4 316/2/4
f 317/2/4 318/2/4 319/2/4
f 319/2/4 318/2/4 320/2/4
f 321/5/4 322/5/4 323/5/4
f 323/5/4 322/5/4 324/5/4
f 325/6/4 326/6/4 327/6/4
f 327/6/4 326/6/4 328/6/4
f 329/6/4 330/6/4 331/6/4
f 331/6/4 330/6/4 332/6/4
f 333/5/4 334/5/4 335/5/4
f 335/5/4 334/5/4 336/5/4
f 337/5/4 338/5/4 339/5/4
f 339/5/4 338/5/4 340/5/4
f 341/3/4 342/3/4 344/3/4
f 342/1/4 343/1/4 345/1/4
f 344/3/4 342/3/4 345/3/4
f 345/1/4 343/1/4 346/1/4
f 349/3/5 348/3/5 347/3/5
f 350/3/5 348/3/5 349/3/5
f 351/1/6 352/1/6 353/1/6
f 353/1/6 352/1/6 354/1/6
f 354/1/6 352/1/6 355/1/6
f 355/1/6 352/1/6 356/1/6
f 351/1/6 353/1/6 357/1/6
f 357/1/6 353/1/6 358/1/6
f 354/1/6 355/1/6 359/1/6
f 356/1/6 352/1/6 360/1/6
f 360/1/6 352/1/6 361/1/6
f 361/1/6 352/1/6 362/1/6
f 358/1/6 353/1/6 363/1/6
f 363/1/6 353/1/6 364/1/6
f 364/1/6 353/1/6 365/1/6
f 354/1/6 359/1/6 366/1/6
f 360/1/6 361/1/6 366/1/6
f 359/1/6 360/1/6 366/1/6
f 358/1/6 363/1/6 367/1/6
f 364/1/6 365/1/6 368/1/6
f 365/1/6 366/1/6 368/1/6
f 366/1/6 361/1/6 369/1/6
f 368/1/6 366/1/6 369/1/6
f 362/1/6 352/1/6 370/1/6
f 351/1/6 357/1/6 371/1/6
f 358/1/6 367/1/6 372/1/6
f 368/1/6 369/1/6 372/1/6
f 369/1/6 370/1/6 372/1/6
f 367/1/6 368/1/6 372/1/6
f 372/1/6 370/1/6 373/1/6
f 371/1/6 372/1/6 373/1/6
f 373/1/6 370/1/6 374/1/6
f 374/1/6 370/1/6 375/1/6
f 375/1/6 370/1/6 376/1/6
f 371/1/6 373/1/6 377/1/6
f 377/1/6 373/1/6 378/1/6
f 378/1/6 373/1/6 379/1/6
f 374/1/6 375/1/6 380/1/6
f 371/1/6 377/1/6 381/1/6
f 381/1/6 377/1/6 382/1/6
f 382/1/6 377/1/6 383/1/6
f 378/1/6 379/1/6 384/1/6
f 379/1/6 380/1/6 384/1/6
f 380/1/6 375/1/6 385/1/6
f 384/1/6 380/1/6 385/1/6
f 376/1/6 370/1/6 386/1/6
f 384/1/6 385/1/6 387/1/6
f 385/1/6 386/1/6 387/1/6
f 382/1/6 383/1/6 387/1/6
f 383/1/6 384/1/6 387/1/6
f 387/1/6 386/1/6 388/1/6
f 370/1/6 352/1/6 389/1/6
f 388/1/6 386/1/6 389/1/6
f 386/1/6 370/1/6 389/1/6
f 389/1/6 352/1/6 390/1/6
f 382/1/6 387/1/6 391/1/6
f 388/1/6 389/1/6 392/1/6
f 371/1/6 381/1/6 393/1/6
f 382/1/6 391/1/6 394/1/6
f 391/1/6 392/1/6 394/1/6
f 394/1/6 392/1/6 395/1/6
f 395/1/6 392/1/6 396/1/6
f 393/1/6 394/1/6 397/1/6
f 394/1/6 395/1/6 397/1/6
f 396/1/6 392/1/6 398/1/6
f 398/1/6 392/1/6 399/1/6
f 399/1/6 392/1/6 400/1/6
f 392/1/6 389/1/6 401/1/6
f 400/1/6 392/1/6 401/1/6
f 390/1/6 352/1/6 402/1/6
f 393/1/6 397/1/6 403/1/6
f 397/1/6 398/1/6 403/1/6
f 398/1/6 399/1/6 403/1/6
f 403/1/6 399/1/6 404/1/6
f 404/1/6 399/1/6 405/1/6
f 400/1/6 401/1/6 406/1/6
f 401/1/6 402/1/6 406/1/6
f 406/1/6 402/1/6 407/1/6
f 407/1/6 402/1/6 408/1/6
f 393/1/6 403/1/6 409/1/6
f 404/1/6 405/1/6 410/1/6
f 406/1/6 407/1/6 410/1/6
f 405/1/6 406/1/6 410/1/6
f 410/1/6 407/1/6 411/1/6
f 409/1/6 410/1/6 411/1/6
f 411/1/6 407/1/6 412/1/6
f 412/1/6 407/1/6 413/1/6
f 413/1/6 407/1/6 414/1/6
f 414/1/6 407/1/6 415/1/6
f 408/1/6 402/1/6 416/1/6
f 409/1/6 411/1/6 417/1/6
f 412/1/6 413/1/6 418/1/6
f 418/1/6 413/1/6 419/1/6
f 414/1/6 415/1/6 420/1/6
f 415/1/6 416/1/6 420/1/6
f 393/1/6 409/1/6 421/1/6
f 419/1/6 420/1/6 421/1/6
f 371/1/6 393/1/6 421/1/6
f 418/1/6 419/1/6 421/1/6
f 417/1/6 418/1/6 421/1/6
f 409/1/6 417/1/6 421/1/6
f 421/1/6 420/1/6 422/1/6
f 371/1/6 421/1/6 423/1/6
f 422/1/6 420/1/6 424/1/6
f 351/1/6 371/1/6 425/1/6
f 423/1/6 424/1/6 425/1/6
f 371/1/6 423/1/6 425/1/6
f 424/1/6 420/1/6 426/1/6
f 425/1/6 424/1/6 426/1/6
f 420/1/6 416/1/6 426/1/6
f 402/1/6 352/1/6 426/1/6
f 416/1/6 402/1/6 426/1/6
f 429/5/6 430/5/6 433/5/6
f 433/5/6 430/5/6 434/5/6
f 427/6/6 428/6/6 439/6/6
f 439/6/6 428/6/6 440/6/6
f 437/2/6 438/2/6 441/2/6
f 441/2/6 438/2/6 442/2/6
f 435/2/6 436/2/6 443/2/6
f 443/2/6 436/2/6 444/2/6
f 431/5/6 432/5/6 445/5/6
f 445/5/6 432/5/6 446/5/6
f 447/5/6 448/5/6 453/5/6
f 453/5/6 448/5/6 454/5/6
f 451/2/6 452/2/6 457/2/6
f 457/2/6 452/2/6 458/2/6
f 449/5/6 450/5/6 459/5/6
f 459/5/6 450/5/6 460/5/6
f 461/6/6 462/6/6 465/6/6
f 465/6/6 462/6/6 466/6/6
f 455/6/6 456/6/6 467/6/6
f 467/6/6 456/6/6 468/6/6
f 469/5/6 470/5/6 471/5/6
f 471/5/6 470/5/6 472/5/6
f 463/2/6 464/2/6 475/2/6
f 475/2/6 464/2/6 476/2/6
f 473/2/6 474/2/6 479/2/6
f 479/2/6 474/2/6 480/2/6
f 477/5/6 478/5/6 483/5/6
f 483/5/6 478/5/6 484/5/6
f 481/6/6 482/6/6 489/6/6
f 489/6/6 482/6/6 490/6/6
f 485/6/6 486/6/6 491/6/6
f 491/6/6 486/6/6 492/6/6
f 487/5/6 488/5/6 493/5/6
f 493/5/6 488/5/6 494/5/6
f 495/5/6 496/5/6 497/5/6
f 497/5/6 496/5/6 498/5/6
