# MagicaVoxel @ Ephtracy

# group
g Model-4

# material
mtllib Model-4.mtl
usemtl palette

# normals
vn -1 0 0
vn 1 0 0
vn 0 0 1
vn 0 0 -1
vn 0 -1 0
vn 0 1 0

# texcoords
vt 0.208984 0.5
vt 0.994141 0.5

# verts
v -12 0 12
v -12 0 -12
v -12 22 12
v -12 22 -12
v -12 23 12
v -12 23 -12
v -11 23 12
v -11 23 -12
v -11 24 12
v -11 24 -12
v 12 0 12
v 12 0 -12
v 12 24 12
v 12 24 -12
v -12 0 12
v -12 22 12
v -12 23 12
v -11 22 12
v -11 23 12
v -11 24 12
v 12 0 12
v 12 24 12
v -12 0 -12
v -12 22 -12
v -12 23 -12
v -11 22 -12
v -11 23 -12
v -11 24 -12
v 12 0 -12
v 12 24 -12
v -12 0 12
v 12 0 12
v -12 0 -12
v 12 0 -12
v -12 23 12
v -11 23 12
v -12 23 -12
v -11 23 -12
v -11 24 12
v 12 24 12
v -11 24 -12
v 12 24 -12

# faces
f 3/2/1 2/2/1 1/2/1
f 4/2/1 2/2/1 3/2/1
f 5/1/1 4/1/1 3/1/1
f 6/1/1 4/1/1 5/1/1
f 9/2/1 8/2/1 7/2/1
f 10/2/1 8/2/1 9/2/1
f 11/2/2 12/2/2 13/2/2
f 13/2/2 12/2/2 14/2/2
f 18/2/3 16/2/3 15/2/3
f 18/1/3 17/1/3 16/1/3
f 19/1/3 17/1/3 18/1/3
f 21/2/3 18/2/3 15/2/3
f 21/2/3 20/2/3 19/2/3
f 21/2/3 19/2/3 18/2/3
f 22/2/3 20/2/3 21/2/3
f 23/2/4 24/2/4 26/2/4
f 24/1/4 25/1/4 26/1/4
f 26/1/4 25/1/4 27/1/4
f 23/2/4 26/2/4 29/2/4
f 27/2/4 28/2/4 29/2/4
f 26/2/4 27/2/4 29/2/4
f 29/2/4 28/2/4 30/2/4
f 33/2/5 32/2/5 31/2/5
f 34/2/5 32/2/5 33/2/5
f 35/1/6 36/1/6 37/1/6
f 37/1/6 36/1/6 38/1/6
f 39/2/6 40/2/6 41/2/6
f 41/2/6 40/2/6 42/2/6
